<svg width="72" height="72" viewBox="0 0 72 72" fill="none" xmlns="http://www.w3.org/2000/svg">
<g clip-path="url(#clip0_1720_4)">
<path d="M49.464 28.4707L37.536 18.7384C36.648 18.0121 35.352 18.0121 34.464 18.7384L22.536 28.4707C22.056 28.8581 22.056 29.6086 22.536 29.996L26.28 33.0464C26.808 33.4822 27.576 33.4822 28.128 33.0464L36 26.6308L43.872 33.0706C44.4 33.5064 45.168 33.5064 45.72 33.0706L49.464 30.0202C49.944 29.6086 49.944 28.8823 49.464 28.4707Z" fill="#105DFB"/>
<path d="M61.416 38.2515L71.64 29.9233C72.12 29.536 72.12 28.7855 71.64 28.3981L37.536 0.556829C36.648 -0.169466 35.352 -0.169466 34.464 0.556829L0.36 28.3739C-0.12 28.7613 -0.12 29.5118 0.36 29.8991L10.584 38.2515L0.36 46.5797C-0.12 46.967 -0.12 47.7176 0.36 48.1049L29.4 71.7821C30.048 72.2905 30.984 71.8547 30.984 71.0074V46.9186C30.984 46.1681 30.648 45.466 30.072 45.0061L21.768 38.2273L16.176 33.6759L11.328 29.7054C10.968 29.4149 10.968 28.8581 11.328 28.5676L35.088 9.17552C35.616 8.73975 36.384 8.73975 36.936 9.17552L60.696 28.5676C61.056 28.8581 61.056 29.4149 60.696 29.7054L55.848 33.6759L50.232 38.2515L41.928 45.0303C41.352 45.4902 41.016 46.1923 41.016 46.9428V71.0316C41.016 71.8547 41.976 72.3147 42.6 71.8063L71.64 48.1291C72.12 47.7418 72.12 46.9913 71.64 46.6039L61.416 38.2515ZM16.632 43.1903L23.424 48.7344C23.76 49.0249 23.976 49.4365 23.976 49.8722V57.2078C23.976 57.6194 23.496 57.8615 23.184 57.5952L11.304 47.9112C10.944 47.6207 10.944 47.0639 11.304 46.7734L15.696 43.1903C15.984 42.9482 16.368 42.9482 16.632 43.1903ZM48.024 57.2078V49.8722C48.024 49.4365 48.216 49.0007 48.576 48.7344L55.368 43.1903C55.632 42.9724 56.016 42.9724 56.28 43.1903L60.672 46.7734C61.032 47.0639 61.032 47.6207 60.672 47.9112L48.792 57.5952C48.504 57.8615 48.024 57.6436 48.024 57.2078Z" fill="#105DFB"/>
</g>
<defs>
<clipPath id="clip0_1720_4">
<rect width="72" height="72" fill="white"/>
</clipPath>
</defs>
</svg>
